<?xml version="1.0" encoding="UTF-8" standalone="no"?>
<!DOCTYPE svg PUBLIC "-//W3C//DTD SVG 1.1//EN"
 "http://www.w3.org/Graphics/SVG/1.1/DTD/svg11.dtd">
<!-- Generated by graphviz version 3.0.0 (20220226.1711)
 -->
<!-- Title: dependencies Pages: 1 -->
<svg width="428pt" height="174pt"
 viewBox="0.00 0.00 428.00 173.80" xmlns="http://www.w3.org/2000/svg" xmlns:xlink="http://www.w3.org/1999/xlink">
<g id="graph0" class="graph" transform="scale(1 1) rotate(0) translate(4 169.8)">
<title>dependencies</title>
<polygon fill="white" stroke="transparent" points="-4,4 -4,-169.8 424,-169.8 424,4 -4,4"/>
<text text-anchor="middle" x="210" y="-8.2" font-family="sans-serif" font-size="14.00">dependencies</text>
<g id="clust1" class="cluster">
<title>cluster_AuthModule</title>
<polygon fill="none" stroke="black" stroke-dasharray="1,5" points="8,-32.8 8,-157.8 412,-157.8 412,-32.8 8,-32.8"/>
</g>
<g id="clust6" class="cluster">
<title>cluster_AuthModule_providers</title>
<polygon fill="none" stroke="black" points="138,-40.8 138,-92.8 404,-92.8 404,-40.8 138,-40.8"/>
</g>
<g id="clust3" class="cluster">
<title>cluster_AuthModule_imports</title>
<polygon fill="none" stroke="black" points="16,-40.8 16,-92.8 130,-92.8 130,-40.8 16,-40.8"/>
</g>
<!-- PrismaModule -->
<g id="node1" class="node">
<title>PrismaModule</title>
<polygon fill="#8dd3c7" stroke="black" points="122.44,-84.8 119.44,-88.8 98.44,-88.8 95.44,-84.8 23.56,-84.8 23.56,-48.8 122.44,-48.8 122.44,-84.8"/>
<text text-anchor="middle" x="73" y="-62.6" font-family="Times,serif" font-size="14.00">PrismaModule</text>
</g>
<!-- AuthModule -->
<g id="node2" class="node">
<title>AuthModule</title>
<polygon fill="#8dd3c7" stroke="black" points="246.55,-149.8 243.55,-153.8 222.55,-153.8 219.55,-149.8 159.45,-149.8 159.45,-113.8 246.55,-113.8 246.55,-149.8"/>
<text text-anchor="middle" x="203" y="-127.6" font-family="Times,serif" font-size="14.00">AuthModule</text>
</g>
<!-- PrismaModule&#45;&gt;AuthModule -->
<g id="edge1" class="edge">
<title>PrismaModule&#45;&gt;AuthModule</title>
<path fill="none" stroke="black" d="M73,-84.91C73,-104.14 73,-131.8 73,-131.8 73,-131.8 149.35,-131.8 149.35,-131.8"/>
<polygon fill="black" stroke="black" points="149.35,-135.3 159.35,-131.8 149.35,-128.3 149.35,-135.3"/>
</g>
<!-- AuthService -->
<g id="node3" class="node">
<title>AuthService</title>
<ellipse fill="#fdb462" stroke="black" cx="337" cy="-66.8" rx="59.11" ry="18"/>
<text text-anchor="middle" x="337" y="-62.6" font-family="Times,serif" font-size="14.00">AuthService</text>
</g>
<!-- AuthService&#45;&gt;AuthModule -->
<g id="edge2" class="edge">
<title>AuthService&#45;&gt;AuthModule</title>
<path fill="none" stroke="black" d="M337,-84.91C337,-104.14 337,-131.8 337,-131.8 337,-131.8 256.88,-131.8 256.88,-131.8"/>
<polygon fill="black" stroke="black" points="256.88,-128.3 246.88,-131.8 256.88,-135.3 256.88,-128.3"/>
</g>
<!-- JwtStrategy -->
<g id="node4" class="node">
<title>JwtStrategy</title>
<ellipse fill="#fdb462" stroke="black" cx="203" cy="-66.8" rx="56.77" ry="18"/>
<text text-anchor="middle" x="203" y="-62.6" font-family="Times,serif" font-size="14.00">JwtStrategy</text>
</g>
<!-- JwtStrategy&#45;&gt;AuthModule -->
<g id="edge3" class="edge">
<title>JwtStrategy&#45;&gt;AuthModule</title>
<path fill="none" stroke="black" d="M203,-84.91C203,-84.91 203,-103.79 203,-103.79"/>
<polygon fill="black" stroke="black" points="199.5,-103.79 203,-113.79 206.5,-103.79 199.5,-103.79"/>
</g>
</g>
</svg>
