<?xml version="1.0" encoding="UTF-8" standalone="no"?>
<!DOCTYPE svg PUBLIC "-//W3C//DTD SVG 1.1//EN"
 "http://www.w3.org/Graphics/SVG/1.1/DTD/svg11.dtd">
<!-- Generated by graphviz version 3.0.0 (20220226.1711)
 -->
<!-- Title: dependencies Pages: 1 -->
<svg width="1155pt" height="250pt"
 viewBox="0.00 0.00 1155.00 249.80" xmlns="http://www.w3.org/2000/svg" xmlns:xlink="http://www.w3.org/1999/xlink">
<g id="graph0" class="graph" transform="scale(1 1) rotate(0) translate(4 245.8)">
<title>dependencies</title>
<polygon fill="white" stroke="transparent" points="-4,4 -4,-245.8 1151,-245.8 1151,4 -4,4"/>
<text text-anchor="middle" x="573.5" y="-8.2" font-family="sans-serif" font-size="14.00">dependencies</text>
<g id="clust1" class="cluster">
<title>cluster_AppModule</title>
<polygon fill="none" stroke="black" stroke-dasharray="1,5" points="462,-32.8 462,-233.8 841,-233.8 841,-32.8 462,-32.8"/>
</g>
<g id="clust3" class="cluster">
<title>cluster_AppModule_imports</title>
<polygon fill="none" stroke="black" points="608,-40.8 608,-168.8 821,-168.8 821,-40.8 608,-40.8"/>
</g>
<g id="clust6" class="cluster">
<title>cluster_AppModule_providers</title>
<polygon fill="none" stroke="black" points="470,-116.8 470,-168.8 600,-168.8 600,-116.8 470,-116.8"/>
</g>
<g id="clust7" class="cluster">
<title>cluster_AuthModule</title>
<polygon fill="none" stroke="black" stroke-dasharray="1,5" points="8,-32.8 8,-100.8 290,-100.8 290,-32.8 8,-32.8"/>
</g>
<g id="clust12" class="cluster">
<title>cluster_AuthModule_providers</title>
<polygon fill="none" stroke="black" points="16,-40.8 16,-92.8 282,-92.8 282,-40.8 16,-40.8"/>
</g>
<g id="clust13" class="cluster">
<title>cluster_PrismaModule</title>
<polygon fill="none" stroke="black" stroke-dasharray="1,5" points="849,-108.8 849,-176.8 1139,-176.8 1139,-108.8 849,-108.8"/>
</g>
<g id="clust16" class="cluster">
<title>cluster_PrismaModule_exports</title>
<polygon fill="none" stroke="black" points="1015,-116.8 1015,-168.8 1131,-168.8 1131,-116.8 1015,-116.8"/>
</g>
<g id="clust18" class="cluster">
<title>cluster_PrismaModule_providers</title>
<polygon fill="none" stroke="black" points="857,-116.8 857,-168.8 1007,-168.8 1007,-116.8 857,-116.8"/>
</g>
<g id="clust19" class="cluster">
<title>cluster_UsersModule</title>
<polygon fill="none" stroke="black" stroke-dasharray="1,5" points="298,-32.8 298,-100.8 454,-100.8 454,-32.8 298,-32.8"/>
</g>
<g id="clust24" class="cluster">
<title>cluster_UsersModule_providers</title>
<polygon fill="none" stroke="black" points="306,-40.8 306,-92.8 446,-92.8 446,-40.8 306,-40.8"/>
</g>
<!-- AuthModule -->
<g id="node1" class="node">
<title>AuthModule</title>
<polygon fill="#8dd3c7" stroke="black" points="703.55,-160.8 700.55,-164.8 679.55,-164.8 676.55,-160.8 616.45,-160.8 616.45,-124.8 703.55,-124.8 703.55,-160.8"/>
<text text-anchor="middle" x="660" y="-138.6" font-family="Times,serif" font-size="14.00">AuthModule</text>
</g>
<!-- AppModule -->
<g id="node4" class="node">
<title>AppModule</title>
<polygon fill="#8dd3c7" stroke="black" points="754.66,-225.8 751.66,-229.8 730.66,-229.8 727.66,-225.8 671.34,-225.8 671.34,-189.8 754.66,-189.8 754.66,-225.8"/>
<text text-anchor="middle" x="713" y="-203.6" font-family="Times,serif" font-size="14.00">AppModule</text>
</g>
<!-- AuthModule&#45;&gt;AppModule -->
<g id="edge1" class="edge">
<title>AuthModule&#45;&gt;AppModule</title>
<path fill="none" stroke="black" d="M687.47,-160.91C687.47,-160.91 687.47,-179.79 687.47,-179.79"/>
<polygon fill="black" stroke="black" points="683.97,-179.79 687.47,-189.79 690.97,-179.79 683.97,-179.79"/>
</g>
<!-- PrismaModule -->
<g id="node2" class="node">
<title>PrismaModule</title>
<polygon fill="#8dd3c7" stroke="black" points="813.44,-84.8 810.44,-88.8 789.44,-88.8 786.44,-84.8 714.56,-84.8 714.56,-48.8 813.44,-48.8 813.44,-84.8"/>
<text text-anchor="middle" x="764" y="-62.6" font-family="Times,serif" font-size="14.00">PrismaModule</text>
</g>
<!-- PrismaModule&#45;&gt;AuthModule -->
<g id="edge5" class="edge">
<title>PrismaModule&#45;&gt;AuthModule</title>
<path fill="none" stroke="black" d="M714.34,-75.8C697.05,-75.8 681.89,-75.8 681.89,-75.8 681.89,-75.8 681.89,-114.49 681.89,-114.49"/>
<polygon fill="black" stroke="black" points="678.39,-114.49 681.89,-124.49 685.39,-114.49 678.39,-114.49"/>
</g>
<!-- UsersModule -->
<g id="node3" class="node">
<title>UsersModule</title>
<polygon fill="#8dd3c7" stroke="black" points="812.94,-160.8 809.94,-164.8 788.94,-164.8 785.94,-160.8 721.06,-160.8 721.06,-124.8 812.94,-124.8 812.94,-160.8"/>
<text text-anchor="middle" x="767" y="-138.6" font-family="Times,serif" font-size="14.00">UsersModule</text>
</g>
<!-- PrismaModule&#45;&gt;UsersModule -->
<g id="edge10" class="edge">
<title>PrismaModule&#45;&gt;UsersModule</title>
<path fill="none" stroke="black" d="M767,-84.81C767,-84.81 767,-114.65 767,-114.65"/>
<polygon fill="black" stroke="black" points="763.5,-114.65 767,-124.65 770.5,-114.65 763.5,-114.65"/>
</g>
<!-- PrismaModule&#45;&gt;AppModule -->
<g id="edge2" class="edge">
<title>PrismaModule&#45;&gt;AppModule</title>
<path fill="none" stroke="black" d="M714.58,-66.8C712.4,-66.8 711.11,-66.8 711.11,-66.8 711.11,-66.8 711.11,-179.66 711.11,-179.66"/>
<polygon fill="black" stroke="black" points="707.61,-179.66 711.11,-189.66 714.61,-179.66 707.61,-179.66"/>
</g>
<!-- PrismaService  -->
<g id="node8" class="node">
<title>PrismaService </title>
<polygon fill="#fb8072" stroke="black" points="1123.37,-160.8 1022.63,-160.8 1022.63,-124.8 1123.37,-124.8 1123.37,-160.8"/>
<text text-anchor="middle" x="1073" y="-138.6" font-family="Times,serif" font-size="14.00">PrismaService </text>
</g>
<!-- PrismaModule&#45;&gt;PrismaService  -->
<g id="edge8" class="edge">
<title>PrismaModule&#45;&gt;PrismaService </title>
<path fill="none" stroke="black" stroke-dasharray="5,2" d="M813.3,-60.8C900.54,-60.8 1073,-60.8 1073,-60.8 1073,-60.8 1073,-114.6 1073,-114.6"/>
<polygon fill="black" stroke="black" points="1069.5,-114.6 1073,-124.6 1076.5,-114.6 1069.5,-114.6"/>
</g>
<!-- UsersModule&#45;&gt;AppModule -->
<g id="edge3" class="edge">
<title>UsersModule&#45;&gt;AppModule</title>
<path fill="none" stroke="black" d="M738.06,-160.91C738.06,-160.91 738.06,-179.79 738.06,-179.79"/>
<polygon fill="black" stroke="black" points="734.56,-179.79 738.06,-189.79 741.56,-179.79 734.56,-179.79"/>
</g>
<!-- AppService -->
<g id="node5" class="node">
<title>AppService</title>
<ellipse fill="#fdb462" stroke="black" cx="535" cy="-142.8" rx="56.75" ry="18"/>
<text text-anchor="middle" x="535" y="-138.6" font-family="Times,serif" font-size="14.00">AppService</text>
</g>
<!-- AppService&#45;&gt;AppModule -->
<g id="edge4" class="edge">
<title>AppService&#45;&gt;AppModule</title>
<path fill="none" stroke="black" d="M535,-160.91C535,-180.14 535,-207.8 535,-207.8 535,-207.8 661.27,-207.8 661.27,-207.8"/>
<polygon fill="black" stroke="black" points="661.27,-211.3 671.27,-207.8 661.27,-204.3 661.27,-211.3"/>
</g>
<!-- AuthService -->
<g id="node6" class="node">
<title>AuthService</title>
<ellipse fill="#fdb462" stroke="black" cx="215" cy="-66.8" rx="59.11" ry="18"/>
<text text-anchor="middle" x="215" y="-62.6" font-family="Times,serif" font-size="14.00">AuthService</text>
</g>
<!-- AuthService&#45;&gt;AuthModule -->
<g id="edge6" class="edge">
<title>AuthService&#45;&gt;AuthModule</title>
<path fill="none" stroke="black" d="M215,-85.04C215,-92.23 215,-98.8 215,-98.8 215,-98.8 660,-98.8 660,-98.8 660,-98.8 660,-114.65 660,-114.65"/>
<polygon fill="black" stroke="black" points="656.5,-114.65 660,-124.65 663.5,-114.65 656.5,-114.65"/>
</g>
<!-- JwtStrategy -->
<g id="node7" class="node">
<title>JwtStrategy</title>
<ellipse fill="#fdb462" stroke="black" cx="81" cy="-66.8" rx="56.77" ry="18"/>
<text text-anchor="middle" x="81" y="-62.6" font-family="Times,serif" font-size="14.00">JwtStrategy</text>
</g>
<!-- JwtStrategy&#45;&gt;AuthModule -->
<g id="edge7" class="edge">
<title>JwtStrategy&#45;&gt;AuthModule</title>
<path fill="none" stroke="black" d="M81,-84.84C81,-97.36 81,-111.8 81,-111.8 81,-111.8 638.11,-111.8 638.11,-111.8 638.11,-111.8 638.11,-114.77 638.11,-114.77"/>
<polygon fill="black" stroke="black" points="634.61,-114.77 638.11,-124.77 641.61,-114.77 634.61,-114.77"/>
</g>
<!-- PrismaService -->
<g id="node9" class="node">
<title>PrismaService</title>
<ellipse fill="#fdb462" stroke="black" cx="932" cy="-142.8" rx="66.64" ry="18"/>
<text text-anchor="middle" x="932" y="-138.6" font-family="Times,serif" font-size="14.00">PrismaService</text>
</g>
<!-- PrismaService&#45;&gt;PrismaModule -->
<g id="edge9" class="edge">
<title>PrismaService&#45;&gt;PrismaModule</title>
<path fill="none" stroke="black" d="M932,-124.77C932,-104.03 932,-72.8 932,-72.8 932,-72.8 823.5,-72.8 823.5,-72.8"/>
<polygon fill="black" stroke="black" points="823.5,-69.3 813.5,-72.8 823.5,-76.3 823.5,-69.3"/>
</g>
<!-- UsersService -->
<g id="node10" class="node">
<title>UsersService</title>
<ellipse fill="#fdb462" stroke="black" cx="376" cy="-66.8" rx="61.97" ry="18"/>
<text text-anchor="middle" x="376" y="-62.6" font-family="Times,serif" font-size="14.00">UsersService</text>
</g>
<!-- UsersService&#45;&gt;UsersModule -->
<g id="edge11" class="edge">
<title>UsersService&#45;&gt;UsersModule</title>
<path fill="none" stroke="black" d="M429.99,-57.8C523.91,-57.8 707.44,-57.8 707.44,-57.8 707.44,-57.8 707.44,-142.8 707.44,-142.8 707.44,-142.8 711.26,-142.8 711.26,-142.8"/>
<polygon fill="black" stroke="black" points="711.26,-146.3 721.26,-142.8 711.26,-139.3 711.26,-146.3"/>
</g>
</g>
</svg>
